<svg width="20" height="8" viewBox="0 0 20 8" fill="none" xmlns="http://www.w3.org/2000/svg">
<path d="M15 0.999994C13.8918 1.00122 12.8155 1.37056 11.94 2.04999C10.9605 1.07435 9.71406 0.410589 8.35782 0.142419C7.00159 -0.125751 5.59632 0.0136812 4.31923 0.543129C3.04213 1.07258 1.95041 1.96833 1.18174 3.11743C0.413069 4.26653 0.00187019 5.61751 0 6.99999C0 7.26521 0.105357 7.51957 0.292893 7.7071C0.48043 7.89464 0.734784 7.99999 1 7.99999C1.26522 7.99999 1.51957 7.89464 1.70711 7.7071C1.89464 7.51957 2 7.26521 2 6.99999C2 5.67391 2.52678 4.40214 3.46447 3.46446C4.40215 2.52678 5.67392 1.99999 7 1.99999C8.32608 1.99999 9.59785 2.52678 10.5355 3.46446C11.4732 4.40214 12 5.67391 12 6.99999C12 7.26521 12.1054 7.51957 12.2929 7.7071C12.4804 7.89464 12.7348 7.99999 13 7.99999C13.2652 7.99999 13.5196 7.89464 13.7071 7.7071C13.8946 7.51957 14 7.26521 14 6.99999C14.0024 5.82843 13.7064 4.67554 13.14 3.64999C13.5819 3.30078 14.1132 3.08303 14.6731 3.02166C15.233 2.96029 15.7989 3.05778 16.306 3.30297C16.813 3.54816 17.2408 3.93115 17.5404 4.40812C17.84 4.88508 17.9993 5.43675 18 5.99999C18 6.26521 18.1054 6.51957 18.2929 6.7071C18.4804 6.89464 18.7348 6.99999 19 6.99999C19.2652 6.99999 19.5196 6.89464 19.7071 6.7071C19.8946 6.51957 20 6.26521 20 5.99999C20 4.67391 19.4732 3.40214 18.5355 2.46446C17.5979 1.52678 16.3261 0.999994 15 0.999994Z" fill="#585859"/>
</svg>
